<svg xmlns="http://www.w3.org/2000/svg" xmlns:xlink="http://www.w3.org/1999/xlink" width="216" height="522" viewBox="0 0 216 522">
  <defs>
    <radialGradient id="radial-gradient" cx="0.5" cy="0.5" r="0.752" gradientUnits="objectBoundingBox">
      <stop offset="0" stop-color="gold"/>
      <stop offset="0.325" stop-color="#ffd800"/>
      <stop offset="1" stop-color="#847000"/>
    </radialGradient>
  </defs>
  <g id="グループ_128" data-name="グループ 128" transform="translate(-1580.553 -2805)">
    <path id="合体_9" data-name="合体 9" d="M-3713.447,4167.758v-288h96v288Zm96-162v-360h120v360Z" transform="translate(5294 -840.758)" fill="url(#radial-gradient)"/>
    <path id="パス_872" data-name="パス 872" d="M41.76-36.192c-1.344,1.248-1.44,1.344-4.992,3.456-8.544,5.28-12.576,10.848-12.576,17.088,0,10.56,12,17.184,31.2,17.184,11.136,0,16.416-1.728,16.416-5.184,0-3.36-5.376-6.528-11.328-6.528a17.525,17.525,0,0,0-4.128.864,44.4,44.4,0,0,1-12.48,1.536c-10.752,0-16.224-2.976-16.224-8.928,0-3.168,1.728-5.952,5.376-8.736,3.36-2.784,6.624-4.224,13.632-6.624,1.344-.384,4.128-.96,9.024-1.92,3.456-.576,4.416-.768,5.28-.96,5.856-1.44,7.872-2.784,7.872-5.376a3.42,3.42,0,0,0-3.072-3.648c-2.3-.48-5.76-1.056-5.952-1.056a4.184,4.184,0,0,0-1.728.384C52.7-41.76,50.5-40.992,47.808-40.992c-1.44,0-2.208-1.056-2.208-2.784a91.432,91.432,0,0,1,.864-10.56C48.1-64.224,48.1-64.416,48.1-65.376c0-3.744-2.5-6.432-6.912-7.68-2.208-.576-3.456-.96-4.032-1.152-1.728-.576-2.688-.96-3.456-1.248a5.123,5.123,0,0,0-1.92-.48.742.742,0,0,0-.768.672c0,.768.576,1.824,2.3,3.36,2.112,1.92,2.5,2.592,3.072,5.952.672,3.264,1.056,7.392,1.152,14.592C37.728-40.8,38.016-39.84,41.76-36.192Zm4.7,125.856c-8.256,0-10.944-3.744-10.944-14.5q0-5.9,1.728-34.848c.384-4.9.48-5.76,1.056-6.912.768-1.824.864-2.016.864-2.784,0-1.92-2.112-4.032-5.376-5.568A28.978,28.978,0,0,0,23.328,23.52c-.672,0-.96.192-.96.576,0,.192.1.384.576.672a11.121,11.121,0,0,1,2.5,2.3c1.728,2.3,2.208,4.128,2.208,9.5,0,4.8-.192,12.96-.384,18.72-.672,20.352-.672,20.352-.672,24.384,0,12.672,4.992,18.144,16.9,18.144,11.424,0,23.808-4.7,33.6-12.672,3.936-3.36,7.1-6.624,7.1-7.392a.439.439,0,0,0-.48-.384c-.384,0-.768.192-2.592,1.44C73.44,84,55.3,89.664,46.464,89.664Zm18.048,31.392a34.274,34.274,0,0,1-4.9,2.976c-2.88,1.536-16.32,7.488-24.192,10.656-8.064,3.168-12.192,4.32-15.936,4.32-3.168,0-6.912-.48-8.448-1.152a2.21,2.21,0,0,0-.864-.288c-.288,0-.48.192-.48.576,0,.96.576,1.92,2.592,4.032,3.648,3.936,8.448,6.528,11.616,6.528,2.5,0,3.072-.288,8.16-3.936A161.968,161.968,0,0,1,52.512,134.3a.865.865,0,0,1,.1.48c0,.672-.576,1.536-2.88,4.416-4.992,6.432-8.448,15.84-8.448,23.52,0,8.448,4.032,16.7,11.328,23.52,5.952,5.472,14.5,9.312,21.024,9.312,2.88,0,4.992-1.92,4.992-4.512a6.313,6.313,0,0,0-2.112-4.224c-1.632-1.632-2.976-2.4-7.2-3.936a53.587,53.587,0,0,1-12.96-6.816c-6.24-5.088-9.792-12.192-9.792-19.488A23.667,23.667,0,0,1,50.5,143.52c3.456-5.088,7.3-7.872,16.128-11.616,6.048-1.056,9.408-1.728,10.08-1.92,2.208-.48,3.168-1.632,3.168-3.456,0-3.36-4.608-5.664-11.52-5.664C67.3,120.864,65.856,120.96,64.512,121.056Z" transform="translate(1580.553 3123)"/>
    <path id="パス_871" data-name="パス 871" d="M82.348-31.654l.119-35.105h24.038c2.737,0,4.046-.833,4.046-2.261,0-3.689-8.687-11.662-12.733-11.662-1.9,0-3.451,1.666-9.52,10.948H82.467l.238-20.111c.714-.595.714-.595,2.5-1.9a3.062,3.062,0,0,0,1.19-2.023c0-1.19-1.071-2.142-3.213-2.737a66.2,66.2,0,0,0-15.827-2.38c-.952,0-1.19.238-1.19.833l.119,9.758c.119,4.4.119,4.4.238,18.564H50.1l.238-20.111a13.022,13.022,0,0,1,2.38-1.9,2.627,2.627,0,0,0,1.19-2.023c0-1.428-1.071-2.5-3.332-2.975a67.159,67.159,0,0,0-15.589-2.142c-.952,0-1.19.238-1.19.833s.119,2.023.119,3.332c0,2.975.238,6.426.357,24.99H18.326c-1.309,0-4.046-.119-6.069-.238a.849.849,0,0,0-.952.833c0,.238.119.476,2.142,2.856a51.211,51.211,0,0,1,7.378-.476H34.272v35.105H12.5c-1.19,0-3.808-.119-5.831-.357a.849.849,0,0,0-.952.833c0,.238.119.476,2.261,2.737,2.5-.238,5-.238,7.5-.238h96.39c2.618,0,3.927-.833,3.927-2.261,0-3.332-10-12.733-13.447-12.733-1.785,0-2.5.833-10.353,12.019ZM66.521-66.759v35.105H49.98L50.1-66.759ZM54.978-18.8c0-2.5-5.117-4.641-19.278-8.33-5.593,17.017-14.637,28.8-27.727,35.7-1.785.952-1.785.952-1.785,1.309,0,.238.238.476.714.476a36.233,36.233,0,0,0,4.522-.714A69.031,69.031,0,0,0,21.539,6.426c12.495-5,19.159-10,29.036-22.015C53.669-15.946,54.978-16.9,54.978-18.8ZM104.6-1.309c0-6.307-5.355-12.257-14.994-16.9-6.188-2.975-18.8-6.307-23.8-6.307-.714,0-1.071.238-1.071.6,0,.238.238.595.952,1.071a37.662,37.662,0,0,1,6.664,5.712c4.641,4.879,8.449,10,10.472,14.28,3.451,7.5,4.4,9.044,6.664,10.591A8.855,8.855,0,0,0,94.724,9.4C100.317,9.4,104.6,4.76,104.6-1.309ZM33.439,60.809c-1.071-1.071-2.142-1.428-5.831-2.38-7.259-1.666-8.33-1.785-10.115-1.785a.631.631,0,0,0-.714.714V57.6c.357,3.808.714,14.28.714,21.777A104.391,104.391,0,0,1,14.756,102.7,47.192,47.192,0,0,1,2.856,124c-.714.6-.952.952-.952,1.309a.666.666,0,0,0,.714.6,8.956,8.956,0,0,0,3.332-1.666,58,58,0,0,0,16.422-17.493c-.595,16.3-.595,16.3-.595,17.017v.952c0,2.261,1.428,3.213,4.879,3.213a18.479,18.479,0,0,0,7.378-1.428c1.785-.833,2.142-1.547,2.142-4.165v-3.451H51.17v3.57c0,3.094,1.071,3.927,5.117,3.927,6.9,0,11.424-2.023,11.424-5.117v-2.5c-.119-2.38-.238-6.307-.476-11.424-.119-2.38-.119-2.856-.119-4.641,1.9-1.428,2.38-2.023,2.38-3.094s-.714-2.023-2.38-2.975c-4.879-2.856-8.925-4.76-10.472-4.879-.714,0-2.261.952-3.451,2.261a17.93,17.93,0,0,1-2.5,2.618H38.318c-.476-.952-2.261-1.666-6.426-2.737-1.19-.238-1.785-.357-2.856-.6a44.887,44.887,0,0,0,1.666-6.9H51.527c-.119,3.094.476,3.689,3.451,3.689a27,27,0,0,0,7.735-1.071c3.689-1.19,4.522-2.023,4.522-5.117,0-1.19,0-2.261-.238-5.95-.119-2.261-.119-2.261-.476-11.424,2.618-1.666,3.094-2.142,3.094-3.213,0-1.309-2.142-3.094-6.307-5.355S57.715,55.1,56.525,55.1c-.952,0-1.9.595-3.332,2.261-1.666,2.023-2.142,2.5-2.975,3.451Zm17.969,2.38v8.925H31.773c.119-2.261.119-3.451.119-4.046,0-3.57.119-4.4,1.071-4.879Zm0,11.305v9.52H31.059c.238-2.5.6-7.14.6-9.52Zm0,24.633v17.255H36.176c-.119-5.831-.238-8.925-.238-11.781,0-4.641.357-5.474,2.261-5.474ZM57,51.884c1.309,0,2.023-.595,2.023-1.666,0-1.428-.714-2.5-3.332-4.76-2.737-2.618-4.522-3.689-5.831-3.689-1.071,0-2.737,1.9-6.545,7.735H32.249a74.939,74.939,0,0,1-7.735-.476A153.817,153.817,0,0,0,44.982,29.393a33.3,33.3,0,0,1,11.9,12.733c3.927,7.021,4.046,7.14,8.449,7.14,4.641,0,7.973-3.094,7.973-7.378,0-4.4-2.023-7.14-6.9-9.4a58.953,58.953,0,0,0-17.493-4.165c-1.9-.119-1.9-.119-2.975-.119a3.088,3.088,0,0,1,1.785-1.547c2.023-.833,2.618-1.428,2.618-2.737,0-1.071-1.071-1.785-4.641-2.856a86.261,86.261,0,0,0-15.589-2.975C24.038,36.414,14.994,50.813,4.284,59.024c-1.9,1.428-1.9,1.428-1.9,1.785a.544.544,0,0,0,.6.476c.6,0,2.142-.714,5-2.023,6.307-2.975,6.9-3.332,16.065-9.877,0,.476,0,.833,1.666,2.856,3.808-.238,6.069-.357,10.948-.357ZM94.843,28.56c0,6.307.6,31.892.6,41.293l.119,26.18c0,9.639-.238,13.685-.952,15.351-.952,2.5-2.975,3.689-10.115,3.689-3.57,0-4.879-.119-5.355-.119-.6,0-.952.119-.952.476,0,.238.119.476.714.714a43.951,43.951,0,0,1,6.307,3.927c1.547,1.19,2.023,2.737,2.5,5.236.476,2.737,2.261,3.57,6.426,3.57,4.4,0,9.163-1.309,12.138-3.927,3.332-2.975,4.522-7.14,4.4-12.852l-.952-81.277c2.261-1.428,3.451-2.38,3.451-3.57,0-1.547-1.428-2.618-4.284-3.451a96.191,96.191,0,0,0-13.8-2.38c-.238,0-.357.119-.357.476s.119,1.428.119,3.213ZM74.137,101.745c0,2.975.952,3.927,4.284,3.927a17.241,17.241,0,0,0,6.783-1.666c2.618-1.309,3.332-2.5,3.332-5.593V96.628c-.119-10-.357-28.917-.357-35.819V39.984c1.9-1.19,3.094-2.142,3.094-3.332,0-1.428-1.309-2.38-4.046-3.213a79.387,79.387,0,0,0-12.138-2.38c-.476,0-.6.238-.6.833,0,.952,0,2.142.119,6.426.119,4.76.119,6.188.119,17.136,0,13.566-.238,32.844-.6,44.03Zm3.451,75.922c7.735-8.33,13.209-15.47,16.3-19.516.714-.952,1.785-2.261,2.5-3.213,5-1.547,5.831-2.261,5.831-4.046,0-2.5-3.927-4.879-17.969-11.186a108.568,108.568,0,0,1-7.5,15.47c-2.023-2.737-7.14-6.664-8.806-6.664-1.071,0-3.213,2.737-7.378,8.211h-2.38l.238-9.877c3.332-2.142,3.927-2.618,3.927-3.927s-1.428-2.38-3.808-2.975c-4.284-.952-12.376-2.261-15.589-2.261-.714,0-.833.238-.833.833,0,6.069.119,12.138.119,18.207H21.3c-1.19,0-3.57-.119-5.355-.238a.849.849,0,0,0-.952.833c0,.238.119.476,1.9,2.618a51.749,51.749,0,0,1,6.069-.238h19.4v17.969H13.209c-1.666,0-5.117-.238-7.735-.476a.849.849,0,0,0-.952.833c0,.238.119.476,2.261,3.094,2.975-.238,6.069-.357,9.044-.357H58.072a161.711,161.711,0,0,1-14.28,14.28c-1.19-.357-1.9-.6-3.094-.952a32.568,32.568,0,0,0-5.831-1.19c-.833,0-.952.357-.952,2.023,0,3.927,0,6.426-.119,8.33-6.069,4.641-10.829,8.092-15.113,10.829a96.32,96.32,0,0,1-9.877,5.593c-2.023.952-3.57,1.666-4.284,2.023-.833.357-1.071.714-1.071.952a.686.686,0,0,0,.714.714,11.459,11.459,0,0,0,2.38-.357,61.682,61.682,0,0,0,9.282-2.975A148.187,148.187,0,0,0,33.8,211.939c-.476,14.042-.476,14.042-.714,20.349-.476,10.591-.476,10.591-.476,12.138,0,2.261,1.9,3.332,6.307,3.332a15.874,15.874,0,0,0,7.259-1.547c2.023-1.19,2.142-2.38,2.142-5.117v-.357h32.13v.952c0,3.57.119,4.165.6,4.76.714.952,2.38,1.428,4.76,1.428,4.4,0,8.806-.952,10.71-2.5,1.428-1.071,1.9-2.38,1.9-4.879,0-.952,0-2.618-.238-5.95-.595-8.449-.833-14.28-1.19-29.512,2.38-1.547,3.213-2.5,3.213-3.689s-.833-2.142-2.975-3.808c-4.641-3.332-9.758-5.95-11.543-6.069-1.309,0-3.451,1.9-6.9,6.426h-23.8a158.565,158.565,0,0,0,20.111-17.136h36.176c2.38,0,3.57-.714,3.57-1.9,0-2.023-1.666-4.522-5.593-7.973-2.856-2.618-4.76-3.689-6.307-3.689-1.785,0-4.879,3.332-11.305,10.472ZM73.78,159.7c-6.664,9.877-9.52,13.923-13.209,17.969h-2.38V159.7Zm6.664,57.12H48.314l.238-14.042a1.91,1.91,0,0,1,1.9-2.023H77.469c1.9,0,2.737,1.071,2.737,3.451Zm0,2.975v17.85H48.314v-17.85Z" transform="translate(1676.553 2910)"/>
  </g>
</svg>
