<svg xmlns="http://www.w3.org/2000/svg" xmlns:xlink="http://www.w3.org/1999/xlink" width="60" height="324.204" viewBox="0 0 60 324.204">
  <defs>
    <radialGradient id="radial-gradient" cx="0.5" cy="0.5" r="0.752" gradientUnits="objectBoundingBox">
      <stop offset="0" stop-color="gold"/>
      <stop offset="0.325" stop-color="#ffd800"/>
      <stop offset="1" stop-color="#847000"/>
    </radialGradient>
  </defs>
  <g id="グループ_192" data-name="グループ 192" transform="translate(-1629.442 -2805)">
    <path id="合体_9" data-name="合体 9" d="M0,324.2V180.113H60V324.2ZM0,180.113V0H60V180.113Z" transform="translate(1629.442 2805)" fill="url(#radial-gradient)"/>
    <path id="パス_881" data-name="パス 881" d="M20.88-18.1a10.391,10.391,0,0,1-2.5,1.728c-4.272,2.64-6.288,5.424-6.288,8.544,0,5.28,6,8.592,15.6,8.592C33.264.768,35.9-.1,35.9-1.824c0-1.68-2.688-3.264-5.664-3.264a8.763,8.763,0,0,0-2.064.432,22.2,22.2,0,0,1-6.24.768c-5.376,0-8.112-1.488-8.112-4.464,0-1.584.864-2.976,2.688-4.368,1.68-1.392,3.312-2.112,6.816-3.312.672-.192,2.064-.48,4.512-.96,1.728-.288,2.208-.384,2.64-.48,2.928-.72,3.936-1.392,3.936-2.688a1.71,1.71,0,0,0-1.536-1.824c-1.152-.24-2.88-.528-2.976-.528a2.092,2.092,0,0,0-.864.192C26.352-20.88,25.248-20.5,23.9-20.5c-.72,0-1.1-.528-1.1-1.392a45.716,45.716,0,0,1,.432-5.28c.816-4.944.816-5.04.816-5.52,0-1.872-1.248-3.216-3.456-3.84-1.1-.288-1.728-.48-2.016-.576-.864-.288-1.344-.48-1.728-.624a2.561,2.561,0,0,0-.96-.24.371.371,0,0,0-.384.336c0,.384.288.912,1.152,1.68a3.868,3.868,0,0,1,1.536,2.976,38.89,38.89,0,0,1,.576,7.3C18.864-20.4,19.008-19.92,20.88-18.1Zm2.352,62.928c-4.128,0-5.472-1.872-5.472-7.248q0-2.952.864-17.424c.192-2.448.24-2.88.528-3.456.384-.912.432-1.008.432-1.392,0-.96-1.056-2.016-2.688-2.784a14.489,14.489,0,0,0-5.232-.768c-.336,0-.48.1-.48.288,0,.1.048.192.288.336a5.561,5.561,0,0,1,1.248,1.152c.864,1.152,1.1,2.064,1.1,4.752,0,2.4-.1,6.48-.192,9.36C13.3,37.824,13.3,37.824,13.3,39.84c0,6.336,2.5,9.072,8.448,9.072a27.5,27.5,0,0,0,16.8-6.336c1.968-1.68,3.552-3.312,3.552-3.7a.22.22,0,0,0-.24-.192c-.192,0-.384.1-1.3.72C36.72,42,27.648,44.832,23.232,44.832Zm9.024,15.7a17.137,17.137,0,0,1-2.448,1.488c-1.44.768-8.16,3.744-12.1,5.328-4.032,1.584-6.1,2.16-7.968,2.16a13.509,13.509,0,0,1-4.224-.576,1.105,1.105,0,0,0-.432-.144c-.144,0-.24.1-.24.288,0,.48.288.96,1.3,2.016,1.824,1.968,4.224,3.264,5.808,3.264,1.248,0,1.536-.144,4.08-1.968a80.984,80.984,0,0,1,10.224-5.232.433.433,0,0,1,.048.24c0,.336-.288.768-1.44,2.208A20.806,20.806,0,0,0,20.64,81.36c0,4.224,2.016,8.352,5.664,11.76,2.976,2.736,7.248,4.656,10.512,4.656a2.317,2.317,0,0,0,2.5-2.256,3.157,3.157,0,0,0-1.056-2.112c-.816-.816-1.488-1.2-3.6-1.968a26.794,26.794,0,0,1-6.48-3.408,12.679,12.679,0,0,1-4.9-9.744,11.833,11.833,0,0,1,1.968-6.528c1.728-2.544,3.648-3.936,8.064-5.808,3.024-.528,4.7-.864,5.04-.96,1.1-.24,1.584-.816,1.584-1.728,0-1.68-2.3-2.832-5.76-2.832C33.648,60.432,32.928,60.48,32.256,60.528Z" transform="translate(1635.442 3026)"/>
    <path id="パス_880" data-name="パス 880" d="M40.828-15.694,40.887-33.1H52.805c1.357,0,2.006-.413,2.006-1.121C54.811-36.049,50.5-40,48.5-40c-.944,0-1.711.826-4.72,5.428H40.887l.118-9.971c.354-.3.354-.3,1.239-.944a1.518,1.518,0,0,0,.59-1c0-.59-.531-1.062-1.593-1.357a32.822,32.822,0,0,0-7.847-1.18c-.472,0-.59.118-.59.413l.059,4.838c.059,2.183.059,2.183.118,9.2H24.839l.118-9.971a6.456,6.456,0,0,1,1.18-.944,1.3,1.3,0,0,0,.59-1c0-.708-.531-1.239-1.652-1.475a33.3,33.3,0,0,0-7.729-1.062c-.472,0-.59.118-.59.413s.059,1,.059,1.652c0,1.475.118,3.186.177,12.39H9.086c-.649,0-2.006-.059-3.009-.118a.421.421,0,0,0-.472.413c0,.118.059.236,1.062,1.416a25.39,25.39,0,0,1,3.658-.236h6.667v17.405H6.2c-.59,0-1.888-.059-2.891-.177a.421.421,0,0,0-.472.413c0,.118.059.236,1.121,1.357,1.239-.118,2.478-.118,3.717-.118H55.46c1.3,0,1.947-.413,1.947-1.121,0-1.652-4.956-6.313-6.667-6.313-.885,0-1.239.413-5.133,5.959ZM32.981-33.1v17.405h-8.2L24.839-33.1ZM27.258-9.322c0-1.239-2.537-2.3-9.558-4.13C14.927-5.015,10.443.826,3.953,4.248c-.885.472-.885.472-.885.649,0,.118.118.236.354.236a17.964,17.964,0,0,0,2.242-.354,34.225,34.225,0,0,0,5.015-1.593c6.195-2.478,9.5-4.956,14.4-10.915C26.609-7.906,27.258-8.378,27.258-9.322Zm24.6,8.673c0-3.127-2.655-6.077-7.434-8.378-3.068-1.475-9.322-3.127-11.8-3.127-.354,0-.531.118-.531.3,0,.118.118.3.472.531a18.672,18.672,0,0,1,3.3,2.832,29.406,29.406,0,0,1,5.192,7.08c1.711,3.717,2.183,4.484,3.3,5.251a4.39,4.39,0,0,0,2.6.826A5.026,5.026,0,0,0,51.861-.649Zm-35.282,30.8c-.531-.531-1.062-.708-2.891-1.18-3.6-.826-4.13-.885-5.015-.885a.313.313,0,0,0-.354.354v.118c.177,1.888.354,7.08.354,10.8A51.757,51.757,0,0,1,7.316,50.917a23.4,23.4,0,0,1-5.9,10.561c-.354.295-.472.472-.472.649a.33.33,0,0,0,.354.3A4.44,4.44,0,0,0,2.95,61.6a28.755,28.755,0,0,0,8.142-8.673c-.3,8.083-.3,8.083-.3,8.437v.472c0,1.121.708,1.593,2.419,1.593a9.162,9.162,0,0,0,3.658-.708c.885-.413,1.062-.767,1.062-2.065V58.941H25.37v1.77c0,1.534.531,1.947,2.537,1.947,3.422,0,5.664-1,5.664-2.537V58.882c-.059-1.18-.118-3.127-.236-5.664-.059-1.18-.059-1.416-.059-2.3.944-.708,1.18-1,1.18-1.534s-.354-1-1.18-1.475a19.148,19.148,0,0,0-5.192-2.419,3.318,3.318,0,0,0-1.711,1.121,8.889,8.889,0,0,1-1.239,1.3H19c-.236-.472-1.121-.826-3.186-1.357-.59-.118-.885-.177-1.416-.295a22.255,22.255,0,0,0,.826-3.422H25.547c-.059,1.534.236,1.829,1.711,1.829a13.389,13.389,0,0,0,3.835-.531c1.829-.59,2.242-1,2.242-2.537,0-.59,0-1.121-.118-2.95-.059-1.121-.059-1.121-.236-5.664,1.3-.826,1.534-1.062,1.534-1.593,0-.649-1.062-1.534-3.127-2.655s-2.773-1.416-3.363-1.416c-.472,0-.944.3-1.652,1.121-.826,1-1.062,1.239-1.475,1.711Zm8.909,1.18v4.425H15.753c.059-1.121.059-1.711.059-2.006,0-1.77.059-2.183.531-2.419Zm0,5.6v4.72H15.4c.118-1.239.3-3.54.3-4.72Zm0,12.213V57.7H17.936c-.059-2.891-.118-4.425-.118-5.841,0-2.3.177-2.714,1.121-2.714Zm2.773-23.423c.649,0,1-.295,1-.826,0-.708-.354-1.239-1.652-2.36-1.357-1.3-2.242-1.829-2.891-1.829-.531,0-1.357.944-3.245,3.835H15.989a37.154,37.154,0,0,1-3.835-.236A76.262,76.262,0,0,0,22.3,14.573a16.51,16.51,0,0,1,5.9,6.313c1.947,3.481,2.006,3.54,4.189,3.54a3.68,3.68,0,0,0,3.953-3.658c0-2.183-1-3.54-3.422-4.661a29.229,29.229,0,0,0-8.673-2.065c-.944-.059-.944-.059-1.475-.059a1.531,1.531,0,0,1,.885-.767c1-.413,1.3-.708,1.3-1.357,0-.531-.531-.885-2.3-1.416a42.768,42.768,0,0,0-7.729-1.475c-3.009,9.086-7.493,16.225-12.8,20.3-.944.708-.944.708-.944.885a.27.27,0,0,0,.295.236,11.5,11.5,0,0,0,2.478-1c3.127-1.475,3.422-1.652,7.965-4.9,0,.236,0,.413.826,1.416,1.888-.118,3.009-.177,5.428-.177ZM47.023,14.16c0,3.127.295,15.812.295,20.473l.059,12.98c0,4.779-.118,6.785-.472,7.611-.472,1.239-1.475,1.829-5.015,1.829-1.77,0-2.419-.059-2.655-.059-.295,0-.472.059-.472.236,0,.118.059.236.354.354a21.791,21.791,0,0,1,3.127,1.947,3.748,3.748,0,0,1,1.239,2.6c.236,1.357,1.121,1.77,3.186,1.77a9.442,9.442,0,0,0,6.018-1.947c1.652-1.475,2.242-3.54,2.183-6.372l-.472-40.3c1.121-.708,1.711-1.18,1.711-1.77,0-.767-.708-1.3-2.124-1.711a47.691,47.691,0,0,0-6.844-1.18c-.118,0-.177.059-.177.236s.059.708.059,1.593ZM36.757,50.445c0,1.475.472,1.947,2.124,1.947a8.548,8.548,0,0,0,3.363-.826A2.508,2.508,0,0,0,43.9,48.793v-.885c-.059-4.956-.177-14.337-.177-17.759V19.824c.944-.59,1.534-1.062,1.534-1.652,0-.708-.649-1.18-2.006-1.593a39.36,39.36,0,0,0-6.018-1.18c-.236,0-.3.118-.3.413,0,.472,0,1.062.059,3.186.059,2.36.059,3.068.059,8.5,0,6.726-.118,16.284-.3,21.83Zm1.711,37.642c3.835-4.13,6.549-7.67,8.083-9.676.354-.472.885-1.121,1.239-1.593,2.478-.767,2.891-1.121,2.891-2.006,0-1.239-1.947-2.419-8.909-5.546a53.828,53.828,0,0,1-3.717,7.67c-1-1.357-3.54-3.3-4.366-3.3-.531,0-1.593,1.357-3.658,4.071h-1.18l.118-4.9c1.652-1.062,1.947-1.3,1.947-1.947s-.708-1.18-1.888-1.475A51.918,51.918,0,0,0,21.3,68.263c-.354,0-.413.118-.413.413,0,3.009.059,6.018.059,9.027H10.561c-.59,0-1.77-.059-2.655-.118A.421.421,0,0,0,7.434,78c0,.118.059.236.944,1.3a25.657,25.657,0,0,1,3.009-.118H21v8.909H6.549c-.826,0-2.537-.118-3.835-.236a.421.421,0,0,0-.472.413c0,.118.059.236,1.121,1.534,1.475-.118,3.009-.177,4.484-.177H28.792a80.177,80.177,0,0,1-7.08,7.08c-.59-.177-.944-.295-1.534-.472a16.147,16.147,0,0,0-2.891-.59c-.413,0-.472.177-.472,1,0,1.947,0,3.186-.059,4.13-3.009,2.3-5.369,4.012-7.493,5.369a47.755,47.755,0,0,1-4.9,2.773c-1,.472-1.77.826-2.124,1-.413.177-.531.354-.531.472a.34.34,0,0,0,.354.354,5.682,5.682,0,0,0,1.18-.177,30.583,30.583,0,0,0,4.6-1.475,73.472,73.472,0,0,0,8.909-4.012c-.236,6.962-.236,6.962-.354,10.089-.236,5.251-.236,5.251-.236,6.018,0,1.121.944,1.652,3.127,1.652a7.87,7.87,0,0,0,3.6-.767c1-.59,1.062-1.18,1.062-2.537v-.177h15.93v.472c0,1.77.059,2.065.3,2.36a2.958,2.958,0,0,0,2.36.708c2.183,0,4.366-.472,5.31-1.239a2.594,2.594,0,0,0,.944-2.419c0-.472,0-1.3-.118-2.95-.295-4.189-.413-7.08-.59-14.632,1.18-.767,1.593-1.239,1.593-1.829s-.413-1.062-1.475-1.888c-2.3-1.652-4.838-2.95-5.723-3.009-.649,0-1.711.944-3.422,3.186h-11.8a78.617,78.617,0,0,0,9.971-8.5H55.165c1.18,0,1.77-.354,1.77-.944,0-1-.826-2.242-2.773-3.953-1.416-1.3-2.36-1.829-3.127-1.829-.885,0-2.419,1.652-5.6,5.192ZM36.58,79.178a74.23,74.23,0,0,1-6.549,8.909h-1.18V79.178Zm3.3,28.32H23.954l.118-6.962a.947.947,0,0,1,.944-1H38.409c.944,0,1.357.531,1.357,1.711Zm0,1.475v8.85H23.954v-8.85Z" transform="translate(1629.442 2857)"/>
  </g>
</svg>
