<svg xmlns="http://www.w3.org/2000/svg" width="805.66" height="165.849" viewBox="0 0 805.66 165.849">
  <path id="パス_889" data-name="パス 889" d="M38.763-60c-3.54,0-10.62-.354-16.284-.708a1.262,1.262,0,0,0-1.416,1.239c0,.354.177.708,3.894,4.6,5.841-.354,12.036-.354,17.877-.354H67.083c-.531,29.382-.708,45.312-.885,50.268C65.844,5.487,65.844,5.487,65.844,6.9c0,6.2,1.593,7.611,8.5,7.611,4.071,0,10.089-1.416,13.1-3.186,2.655-1.593,3.717-3.363,3.717-6.372L90.978,1.77c-.177-4.425-.531-22.479-.885-33.984-.177-5.31-.177-9.381-.177-12.036,0-5.133,0-5.133,1.239-5.841,2.3-1.593,2.478-1.77,2.478-2.655,0-1.062-.531-1.593-2.3-2.655h23.895c1.239,1.416,1.593,3.894,1.416,18.585l.177,12.744c0,7.434-1.416,9.027-7.965,9.027-4.071,0-9.912-.708-10.266-.708-.531,0-.885.177-.885.708s.354.708,1.239,1.239c5.487,2.832,10.089,7.08,10.974,10.266,1.947,7.434,2.124,7.611,6.9,7.611,8.142,0,14.868-2.3,19.824-6.726,3.54-3.363,4.779-7.08,4.779-14.337,0-7.611-.531-22.656-1.062-33.807,3.363-2.655,4.071-3.717,4.071-4.956,0-2.124-1.947-3.894-10.443-8.673-7.257-4.071-8.85-4.6-10.8-4.6-1.593,0-3.186,1.239-4.779,3.54A62.739,62.739,0,0,1,114.342-60Zm57.348-75.048c4.248,22.656,12.213,39.294,25.134,52.746,10.443,11.151,23.01,18.939,30.09,18.939,2.124,0,2.655-.354,4.071-3.363,2.478-4.956,11.151-13.806,15.753-16.107,1.416-.708,1.593-1.062,1.593-1.593s-.354-.885-1.77-1.239a156.488,156.488,0,0,1-22.833-7.611c-12.744-5.487-22.833-11.682-32.568-20.355-9.2-7.965-14.16-14.16-17.523-22.125,3.186-1.593,3.894-2.3,3.894-3.717a4.84,4.84,0,0,0-2.832-3.894c-4.071-1.947-14.514-4.425-28.32-6.9-9.381,27.258-18.585,44.6-32.745,61.419C28.32-77.526,14.691-65.844,6.2-61.6c-1.062.531-1.593.885-1.593,1.416,0,.354.354.708,1.062.708,1.239,0,7.611-2.124,12.921-4.071A145.453,145.453,0,0,0,60.534-89.385C73.278-100.713,86.2-117.705,94.7-134.52ZM65.667-82.482c-2.478,0-7.611-.177-11.682-.354A1.262,1.262,0,0,0,52.569-81.6c0,.354.177.708,3.717,4.425a107.254,107.254,0,0,1,15.045-.885h39.294c3.363,0,4.779-.708,4.779-2.478s-1.947-4.425-6.018-7.788c-5.664-4.956-8.142-6.549-10.089-6.549-2.124,0-4.248,1.947-12.921,12.39Zm168.858-7.257c.354-18.939.354-19.293.708-24.6,2.832-1.239,3.894-2.124,3.894-3.186,0-1.239-1.239-2.478-3.717-3.54,3.363-.531,6.372-1.416,16.284-4.248a8.685,8.685,0,0,0,1.947.177c4.6,0,7.434-1.77,7.434-4.248,0-4.425-10.266-11.328-26.9-18.408a147.932,147.932,0,0,1-56.64,33.984c-1.77.708-2.3.885-2.3,1.416,0,1.062.531,1.416,2.124,1.416,4.6,0,22.656-2.655,31.506-4.248a45.468,45.468,0,0,0,4.779-1.062c.177,9.558.177,15.4.177,26.55h-26.2c-2.124,0-6.372-.177-9.558-.531a1.262,1.262,0,0,0-1.416,1.239c0,.354.177.708,3.009,3.894a71.074,71.074,0,0,1,8.673-.354h22.656C205.5-60,187.62-25.665,173.637-14.514a1.838,1.838,0,0,0-.885,1.416.81.81,0,0,0,.708.885c1.416,0,7.965-3.717,14.16-7.788a107.571,107.571,0,0,0,25.842-23.01c-.177,7.257-.177,7.257-.531,18.939,0,4.956-.531,17.346-.708,22.833-.531,9.735-.531,9.735-.531,10.089,0,3.363,2.3,4.779,7.788,4.779,6.726,0,12.744-2.124,15.045-4.956.885-1.062,1.062-2.124,1.062-4.6-.177-6.9-.177-11.682-.354-16.815L234.7-64.251c5.841,6.549,7.611,11.151,8.319,22.3.354,6.2,2.832,8.673,8.85,8.673,8.142,0,13.806-5.487,13.806-13.275,0-10.8-11.151-17.877-30.975-19.47v-19.47h27.966c2.124,0,3.54-1.062,3.54-2.655,0-2.478-1.947-5.487-5.841-9.381-5.133-4.779-7.434-6.372-9.381-6.372-2.3,0-3.186.531-11.151,14.16Zm56.994-24.072c-.531-1.062-1.416-1.593-3.717-2.655-4.779-1.947-15.045-4.779-17.169-4.779-.885,0-1.239.354-1.239,1.947.177,6.372.177,6.372.177,34.692,0,25.488-.177,50.445-.354,69.03C269.04-9.2,269.04-9.2,269.04-8.85c0,4.956,1.062,6.018,6.2,6.018,5.664,0,10.443-1.239,13.1-3.717,1.947-1.593,2.124-2.478,2.124-8.319v-5.31h18.408c0,14.16,0,14.16.531,15.222.885,1.593,3.54,2.478,7.965,2.478,9.735,0,14.868-3.717,14.868-10.974s-.354-28.5-.708-40.887c-.531-22.3-.531-22.3-.708-47.259,3.717-2.832,4.956-4.6,4.956-6.726,0-1.77-1.416-3.54-5.841-6.9-5.841-4.6-11.682-7.788-14.16-7.788-2.124,0-4.6,2.478-8.673,9.2ZM290.28-24.249c0-10.266,0-18.231-.177-23.364l-.177-47.79c0-12.213.354-14.16,3.009-14.16h14.514c1.239.354,1.416.708,1.416,2.124v6.372c.177,4.248.354,9.558.177,76.818ZM435.7-82.218c1.136-.994,2.84-2.556,3.408-3.124a3.724,3.724,0,0,0,1.562-3.124c0-2.7-1.278-4.544-6.674-9.088-7.526-6.532-8.52-7.1-11.5-7.1a24.528,24.528,0,0,0-6.106,1.42c-1.7.71-3.124,1.42-3.124,1.846a.943.943,0,0,0,.568.71c3.266,1.562,4.828,3.976,4.828,7.1,0,5.68-1.42,14.342-4.118,23.43a191.276,191.276,0,0,1-14.2,37.062,119.412,119.412,0,0,1-21.158,28.4,51.4,51.4,0,0,1-7.526,6.39,35.3,35.3,0,0,1-7.242,4.4c-.852.426-.852.568-.852.852s.284.426.568.426a20.9,20.9,0,0,0,4.544-1.278,79.741,79.741,0,0,0,13.49-6.248,93.084,93.084,0,0,0,11.5-7.526c14.342-10.65,23.856-24,33.512-49.842C430.018-64.468,432.716-72.846,435.7-82.218Zm72.779-53.187a32.988,32.988,0,0,0-6.018-9.558c-1.239-1.239-1.947-1.947-3.009-1.947-.531,0-1.239.531-1.239,1.062a21.888,21.888,0,0,1-.354,3.186,23.468,23.468,0,0,1-3.186,8.673,30.2,30.2,0,0,1-9.381,9.735c-4.425,2.832-5.487,6.018-5.487,10.089,0,6.9,5.487,10.974,12.921,10.974,6.195,0,11.151-3.363,14.691-8.5a22.02,22.02,0,0,0,3.186-11.859,29.464,29.464,0,0,0-.885-8.142H612.2c-.708,6.372-1.593,12.921-2.3,17.169-4.6-3.717-7.257-5.133-8.85-5.133-2.3,0-3.894,2.124-11.328,13.1H570.25l.177-6.549c4.071-2.478,5.841-3.717,5.841-6.372,0-2.3-1.947-3.894-7.257-4.956-4.956-1.239-17.346-3.009-20.709-3.009-.708,0-.885.354-.885,1.239,0,.354.177,4.071.177,4.425,0,1.416.177,8.5.354,15.222H512.9c-1.77,0-5.487-.177-8.319-.354a1.262,1.262,0,0,0-1.416,1.239c0,.354.177.708,2.655,3.717,3.54-.354,7.434-.354,10.974-.354h31.152l.177,16.992h-17.7a9.455,9.455,0,0,0-5.664-3.363c-7.08-1.947-15.222-3.717-17.346-3.717-1.239,0-1.239.354-1.239,4.956v3.363c-.354,16.107-.531,32.214-.885,48.321,0,4.6,1.239,6.195,7.965,6.195,4.779,0,9.912-1.593,12.567-3.54,1.239-1.062,1.77-2.3,1.77-4.779v-.885h20.355l-.354,19.116H491.485c-2.478,0-7.611-.354-11.505-.708a1.262,1.262,0,0,0-1.416,1.239c0,.354.177.708,3.009,4.779,5.133-.354,10.62-.531,15.753-.531h50.091c0,2.655,0,4.779-.177,8.142-.177,2.832-.531,11.505-.531,15.576,0,4.956,2.3,6.726,8.673,6.726,5.664,0,10.974-1.77,13.806-4.248,1.77-1.593,2.124-2.655,2.124-6.018l-.531-20.178h67.437c3.363,0,5.31-1.239,5.31-3.363,0-4.956-14.514-18.054-20-18.054-2.655,0-4.956,3.54-15.222,16.638H570.781c0-2.655-.177-9.027-.354-19.116H591.49v1.77c0,3.186,2.3,4.956,7.611,4.956,5.664,0,11.859-1.947,14.514-4.248,1.947-1.77,2.655-3.363,2.655-6.726,0-4.248-.531-14.691-1.416-33.453,3.009-1.947,4.779-3.717,4.779-5.31s-1.239-3.009-4.425-5.133C607.6-91.863,601.756-94.7,599.455-94.7c-1.947,0-3.54,1.593-9.381,9.381H570.25v-16.992h41.772c4.248,0,6.018-.708,6.018-2.655,0-1.77-1.239-3.717-3.894-6.018l-.885-.708a68.908,68.908,0,0,1,16.461-6.018,50.756,50.756,0,0,1,6.9-.708c4.425-.177,7.08-2.124,7.08-5.31,0-3.717-2.478-7.965-8.673-13.275-7.788-6.726-12.567-9.2-15.753-9.2-2.3,0-3.363,1.416-6.372,5.133-1.239,1.593-2.124,2.832-4.248,5.664Zm83.367,75.756v16.815H570.427l-.177-16.815Zm0-4.248H570.25V-81.42h19.293c1.416,0,2.124.531,2.3,1.593Zm-43.719,4.248-.177,16.815H527.416V-59.649Zm0-21.771V-63.9H527.416l.177-10.089c.177-5.487.885-6.9,3.717-7.434ZM673.087-57.348,672.91-79.3h16.638v4.071c0,3.009,1.77,4.071,6.726,4.071,4.248,0,10.8-1.593,13.1-3.009a4.562,4.562,0,0,0,2.3-4.425c0-.885,0-4.071-.177-8.5-.177-6.372-.177-6.372-.354-9.027-.177-5.487-.177-5.487-.354-10.089,4.779-3.009,4.956-3.363,4.956-4.779,0-1.77-1.593-3.894-4.6-6.2-6.372-4.779-10.8-7.257-13.1-7.257-1.239,0-2.3.708-5.664,3.894l-2.832,2.655h-10.8c8.5-6.726,13.1-10.8,20.178-17.346,5.664-1.416,7.08-3.009,7.08-5.31,0-1.947-1.416-3.186-4.779-4.425-5.133-1.947-19.824-5.31-22.3-5.31-.531,0-.708.177-.885,1.062a279.605,279.605,0,0,1-5.664,29.205c-4.425-2.655-13.983-5.841-17.877-5.841-1.062,0-1.416.531-1.416,1.77,0,16.992.354,35.046,0,57.7-.177,22.833-.531,46.2-.885,67.968,0,4.071,1.416,5.487,5.664,5.487,6.372,0,10.089-.531,12.921-2.3,2.3-1.239,2.832-2.832,2.832-8.319V-16.461h17.169v6.549c0,3.894.708,5.664,6.018,5.664,5.841,0,12.921-2.3,15.045-4.956,1.062-1.239,1.593-2.478,1.593-6.2-.354-8.142-.885-25.134-1.062-32.745,3.894-3.009,4.248-3.363,4.248-4.779,0-1.77-2.478-4.071-7.965-7.611-4.779-2.832-8.319-4.425-9.912-4.425-1.947,0-2.478.531-7.788,7.611Zm16.638-26.2H672.91c.177-20.886.177-21.948.354-25.311.177-3.54.708-4.779,2.655-4.779h12.744c.885.708,1.062,1.239,1.062,3.894Zm1.062,62.658H673.264l-.177-32.037h15.222c2.124,0,2.478.708,2.478,5.133Zm30.621-111.687c-2.124,0-6.726-.177-10.089-.531a1.262,1.262,0,0,0-1.416,1.239c0,.354.177.708,2.832,3.894a57.357,57.357,0,0,1,7.788-.354h30.09c.177,4.779.354,9.2.354,14.514,0,6.372,0,8.142.177,12.921h-7.08c-.708-.885-3.363-2.3-5.664-3.009-4.071-1.239-12.39-2.832-14.691-2.832-.708,0-.708.177-.708,3.363.177,4.956.177,7.788.177,9.027,0,4.779,0,17.523-.177,31.152-.177,19.824-.531,38.232-.708,44.958-.177,9.735-.177,9.735-.177,10.443,0,3.54,1.77,4.956,6.372,4.956,4.956,0,9.735-1.416,12.036-3.717,1.416-1.593,1.593-1.947,1.593-10.089V-92.925c0-2.124.177-2.478,1.239-3.54H751.5c0,8.319,0,9.2-.177,26.373-.354,23.541-.708,43.365-1.062,57.525-.531,16.638-.531,17.169-.531,20.532,0,5.664,1.947,7.434,7.08,7.434,4.779,0,10.266-1.593,13.1-3.54,1.947-1.416,2.832-2.655,2.655-7.611l-.354-19.47c2.832.708,5.133,3.363,6.018,6.726a45.264,45.264,0,0,0,1.239,4.779c.885,2.655,3.54,3.363,6.372,3.363A20.384,20.384,0,0,0,802.474-8.5c1.947-2.655,2.655-6.372,2.655-12.567-.531-16.638-.531-17.169-1.416-37.524-.354-8.85-.708-18.054-.708-30.444,3.186-2.124,4.248-3.54,4.248-5.31,0-1.947-1.062-3.363-5.841-7.434-6.726-5.31-11.151-7.965-13.452-7.965-1.947,0-3.186,1.239-8.85,8.85h-7.965l.531-22.656c4.071-1.416,4.779-2.478,4.779-4.779H804.6c4.071,0,5.664-.885,5.664-3.186,0-4.779-12.567-16.107-17.7-16.107-1.947,0-3.363,1.062-6.2,4.779-6.018,7.788-6.018,7.788-7.965,10.266ZM771.853-18.054c-.177-11.682-.354-23.364-.531-35.4-.177-12.567-.354-28.674-.531-43.011h10.62c.177,11.328.354,23.187.531,34.515.177,16.461.177,18.231.177,27.258.177,12.39-.354,13.1-1.77,14.691-1.062,1.239-3.363,1.947-7.611,1.947Z" transform="translate(-4.602 150.273)"/>
</svg>
